<?xml version="1.0" encoding="iso-8859-1"?>
<!-- Generator: Adobe Illustrator 19.0.0, SVG Export Plug-In . SVG Version: 6.00 Build 0)  -->
<svg version="1.1" id="Capa_1" xmlns="http://www.w3.org/2000/svg" xmlns:xlink="http://www.w3.org/1999/xlink" x="0px" y="0px"
	 viewBox="0 0 512.001 512.001" style="enable-background:new 0 0 512.001 512.001;" xml:space="preserve">
<circle style="fill:#FF614E;" cx="252.721" cy="130.899" r="75.44"/>
<g>
	<path style="fill:#EF4B30;" d="M177.276,81.695c-76.757,0-64.948,73.477-64.948,78.069v51.171l143.673-42.642
		C256.001,168.293,244.02,81.695,177.276,81.695z"/>
	<path style="fill:#EF4B30;" d="M334.726,81.695c-66.744,0-78.725,86.597-78.725,86.597l143.673,42.643v-51.171
		C399.674,155.172,411.483,81.695,334.726,81.695z"/>
</g>
<path style="fill:#FF614E;" d="M372.12,126.306c-45.923,0-66.916,41.331-66.916,41.331l-49.203,25.594l-49.203-25.594
	c0,0-20.993-41.331-66.916-41.331s-62.98,30.178-62.98,79.381c0,35.89,32.258,178.258,89.222,238.143
	c25.586,26.898,46.726-1.657,89.878-1.968c43.151,0.311,64.292,28.866,89.878,1.968c56.964-59.885,89.222-202.253,89.222-238.143
	C435.1,156.484,418.043,126.306,372.12,126.306z"/>
<path style="fill:#EF4B30;" d="M259.063,501.999c19.244,0,26.242-15.964,26.242-15.964s34.989-69.103,77.85-197.687
	s-45.486-134.707-45.486-134.707h-58.606h-58.606c0,0-88.347,6.123-45.486,134.707s77.85,197.687,77.85,197.687
	S239.819,501.999,259.063,501.999z"/>
<path style="fill:#5FA89C;" d="M341.458,17.85c-7.178-9-20.292-10.477-29.291-3.299c-13.993,11.16-26.111,28.023-36.017,50.119
	c-3.702,8.257-7.674,18.877-9.827,26.726c-0.886-0.018-1.774-0.033-2.669-0.033c-34.904,0-63.199,13.997-63.199,31.264
	s28.295,31.264,63.199,31.264s63.199-13.997,63.199-31.264c0-8.92-7.565-16.962-19.679-22.658
	c2.583-9.272,13.047-38.522,30.984-52.828C347.158,39.963,348.635,26.85,341.458,17.85z"/>
<path d="M428.906,141.647c-5.619-7.692-12.682-13.627-21.105-17.827c-2.816-12.104-8.022-22.356-15.624-30.637
	c-13.086-14.258-32.416-21.487-57.452-21.487c-1.474,0-2.934,0.042-4.381,0.118c3.937-6.454,8.642-12.543,14.049-16.855
	c13.295-10.603,15.485-30.048,4.882-43.343C344.138,5.176,336.8,1.12,328.613,0.198c-8.188-0.921-16.242,1.399-22.681,6.536
	c-12.405,9.893-23.381,23.727-32.731,41.228c-6.566-1.624-13.421-2.506-20.482-2.506c-24.652,0-46.886,10.504-62.495,27.26
	c-4.191-0.677-8.51-1.019-12.949-1.019c-25.036,0-44.366,7.229-57.452,21.487c-7.603,8.283-12.814,18.534-15.63,30.64
	c-8.42,4.2-15.481,10.135-21.098,17.824c-10.897,14.916-16.194,35.864-16.194,64.041c0,36.927,32.62,182.636,91.977,245.036
	c9.367,9.848,19.599,14.636,31.279,14.637h0.005c6.79,0,13.471-1.585,20.337-3.643c7.672,17.271,12.471,26.977,13.28,28.598
	c3.703,8.182,15.152,21.684,35.283,21.684s31.58-13.503,35.283-21.684c0.785-1.573,5.327-10.758,12.607-27.085
	c4.982,1.268,9.907,2.13,14.891,2.13c11.68,0,21.912-4.788,31.28-14.637c59.357-62.4,91.977-208.109,91.977-245.036
	C445.1,177.511,439.804,156.563,428.906,141.647z M334.726,91.695c19.203,0,33.575,5.051,42.718,15.011
	c2.761,3.009,5.067,6.467,6.936,10.344c-3.912-0.481-7.989-0.743-12.259-0.743c-13.741,0-25.478,3.2-35.322,7.927
	c0.033-0.533,0.055-1.068,0.055-1.607c0-10.721-6.542-20.237-17.608-27.422c0.193-0.529,0.406-1.089,0.618-1.647
	C324.576,92.327,329.528,91.695,334.726,91.695z M252.72,65.454c4.016,0,7.942,0.379,11.758,1.08
	c-1.883,4.579-3.875,9.813-5.567,14.915c-12.94,0.424-24.761,2.586-34.815,6.088c-3.864-3.011-7.931-5.589-12.179-7.754
	C223.114,70.825,237.299,65.454,252.72,65.454z M254.738,101.699c0.285,6.977,2.906,13.628,7.522,18.943
	c1.978,2.277,4.758,3.442,7.554,3.442c2.325,0,4.661-0.807,6.554-2.45c4.17-3.622,4.613-9.938,0.992-14.107
	c-1.806-2.078-2.746-4.739-2.647-7.494c0.137-3.87,4.781-18.374,10.563-31.272c9.248-20.628,20.393-36.236,33.129-46.392
	c2.264-1.806,5.093-2.616,7.973-2.298c2.878,0.324,5.457,1.75,7.263,4.015c3.729,4.674,2.958,11.51-1.716,15.237
	c-20.587,16.42-32.349,49.45-34.846,59.726c-1.305,5.366,1.988,10.774,7.355,12.078c1.01,0.247,2.022,0.329,3.008,0.266
	c6.073,3.667,9.412,7.763,9.412,11.234c0,8.67-20.724,21.264-53.198,21.264s-53.199-12.594-53.199-21.264
	C210.456,114.78,227.441,103.729,254.738,101.699z M134.558,106.706c9.143-9.96,23.514-15.011,42.718-15.011
	c9.74,0,18.633,2.175,26.65,6.478c-8.536,6.754-13.47,15.148-13.47,24.454c0,5.247,1.571,10.204,4.467,14.742
	c-12.385-10.875-30.523-21.062-55.042-21.062c-4.278,0-8.363,0.263-12.281,0.746C129.475,113.172,131.793,109.718,134.558,106.706z
	 M190.163,445.36h-0.003c-4.342-0.001-9.732-1.001-16.791-8.422c-54.85-57.662-86.468-197.415-86.468-231.251
	c0-61.496,28.313-69.381,52.98-69.381c16.311,0,28.987,6.02,38.274,13.13c-10.201,4.412-22.089,12.15-31.15,25.686
	c-17.86,26.679-18.372,65.837-1.522,116.388c22.279,66.837,42.602,118.001,56.975,151.717
	C197.937,444.499,193.833,445.36,190.163,445.36z M276.382,481.52l-0.235,0.501c-0.044,0.1-4.52,9.978-17.084,9.978
	c-11.722,0-16.424-8.641-17.098-10.016l-0.222-0.464c-0.348-0.687-35.202-70.085-77.286-196.334
	c-14.529-43.586-14.871-77.716-0.989-98.703c13.081-19.776,34.694-22.566,37.422-22.843h116.331
	c2.912,0.299,24.406,3.145,37.435,22.843c13.882,20.986,13.54,55.117-0.988,98.703C311.584,411.435,276.729,480.833,276.382,481.52z
	 M338.633,436.938c-7.06,7.421-12.449,8.422-16.79,8.422c-2.108,0-4.366-0.294-6.755-0.775
	c14.403-33.693,34.975-85.34,57.554-153.074c16.849-50.55,16.338-89.709-1.522-116.388c-10.239-15.295-24.087-23.189-35.032-27.243
	c9.075-6.408,21.034-11.573,36.033-11.573c24.667,0,52.98,7.886,52.98,69.381C425.101,239.523,393.483,379.276,338.633,436.938z"/>
<path d="M280.14,406.349c-1.21-0.49-2.479-0.74-3.77-0.74c-4.09,0-7.721,2.45-9.27,6.23c-1,2.479-0.99,5.2,0.05,7.66
	c1.04,2.46,2.971,4.37,5.45,5.38c1.2,0.49,2.47,0.74,3.76,0.74c4.091,0,7.73-2.45,9.27-6.23c1.01-2.479,0.99-5.2-0.05-7.66
	C284.541,409.269,282.61,407.359,280.14,406.349z"/>
<path d="M334.9,216.331h-0.01c-5.5,0-9.99,4.479-10,9.989c-0.02,16.78-3.79,36.58-11.22,58.87c-10.32,30.94-21.07,61.1-31.98,89.64
	c-1.96,5.149,0.63,10.939,5.78,12.91c1.15,0.439,2.35,0.659,3.561,0.659c4.119,0,7.869-2.58,9.35-6.43
	c11-28.809,21.86-59.24,32.26-90.459c4.17-12.51,7.31-24.46,9.34-35.53c1.92-10.449,2.891-20.43,2.91-29.639
	C344.89,220.831,340.411,216.341,334.9,216.331z"/>
<g>
</g>
<g>
</g>
<g>
</g>
<g>
</g>
<g>
</g>
<g>
</g>
<g>
</g>
<g>
</g>
<g>
</g>
<g>
</g>
<g>
</g>
<g>
</g>
<g>
</g>
<g>
</g>
<g>
</g>
</svg>
