<svg fill="#00401c" viewBox="1 -17 511.99921 511" xmlns="http://www.w3.org/2000/svg">
    <path d="m493.234375 252.894531c-5.875-9.132812-12.71875-16.367187-20.207031-21.527343v-22.902344c0-10.964844-8.921875-19.882813-19.882813-19.882813h-1.144531v-77.597656c0-53.902344-43.851562-97.753906-97.753906-97.753906-18.515625 0-36.269532 5.109375-51.773438 14.828125-14.144531-16.835938-35.335937-27.558594-58.992187-27.558594-42.480469 0-77.046875 34.5625-77.046875 77.046875 0 5.296875.539062 10.46875 1.5625 15.46875h-10.707032c-19.179687 0-34.785156 15.605469-34.785156 34.785156v77.597657c-8.699218-6.269532-19.277344-9.820313-30.289062-9.820313-28.558594 0-51.796875 23.234375-51.796875 51.796875 0 27.738281 14.617187 56.730469 43.441406 86.175781 15.84375 16.183594 31.527344 27.828125 38.644531 32.8125v21.261719c0 4.140625 3.359375 7.5 7.5 7.5s7.5-3.359375 7.5-7.5v-20.550781c6.171875-4.265625 21.210938-15.207031 36.898438-30.738281 2.941406-2.914063 2.964844-7.664063.050781-10.605469-2.914063-2.945313-7.664063-2.96875-10.605469-.054688-13.5625 13.433594-26.855468 23.386719-33.328125 27.972657-16.191406-11.476563-75.101562-56.648438-75.101562-106.273438 0-20.289062 16.507812-36.796875 36.796875-36.796875 13.046875 0 25.242187 7.019531 31.820312 18.324219 1.34375 2.308594 3.8125 3.726562 6.480469 3.726562 2.671875 0 5.140625-1.417968 6.484375-3.726562 6.578125-11.304688 18.769531-18.324219 31.816406-18.324219 20.289063 0 36.796875 16.503906 36.796875 36.796875 0 16.746094-6.789062 34.683594-20.179687 53.316406-2.417969 3.363282-1.652344 8.050782 1.710937 10.46875 3.367188 2.417969 8.050781 1.648438 10.46875-1.714844 15.261719-21.238281 23-42.121093 23-62.070312 0-28.5625-23.238281-51.796875-51.796875-51.796875-11.453125 0-22.425781 3.851563-31.3125 10.597656v-35.851562c5.621094 3.902343 12.433594 6.195312 19.78125 6.195312h115.613282v285.398438h-115.609376c-10.910156 0-19.785156-8.875-19.785156-19.78125v-20.335938c0-4.140625-3.355468-7.5-7.5-7.5-4.140625 0-7.5 3.359375-7.5 7.5v20.335938c0 19.179687 15.605469 34.78125 34.785156 34.78125h159.605469c19.179688 0 34.785157-15.601563 34.785157-34.78125v-207.335938c0-4.140625-3.359376-7.5-7.5-7.5-4.140626 0-7.5 3.359375-7.5 7.5v207.335938c0 10.90625-8.875 19.78125-19.785157 19.78125h-28.992187v-285.398438h28.992187c7.347657 0 14.164063-2.292969 19.785157-6.195312v30.300781c0 4.140625 3.359374 7.5 7.5 7.5 4.140624 0 7.5-3.359375 7.5-7.5v-72.824219c0-18.488281-14.5-33.648437-32.726563-34.71875 1.03125-5.019531 1.574219-10.214843 1.574219-15.535156 0-13.449219-3.472656-26.097656-9.554688-37.113281 12.992188-8 27.816406-12.203125 43.277344-12.203125 45.628906 0 82.753906 37.125 82.753906 82.753906v77.597656h-1.144531c-10.964844 0-19.882813 8.917969-19.882813 19.882813v22.902344c-7.492187 5.160156-14.332031 12.394531-20.207031 21.527343-12.101562 18.804688-18.765625 43.664063-18.765625 69.992188s6.664063 51.183593 18.765625 69.992187c12.761719 19.832032 30.066407 30.75 48.734375 30.75 18.664063 0 35.96875-10.917968 48.730469-30.75 12.101563-18.808594 18.765625-43.664062 18.765625-69.992187s-6.664062-51.1875-18.765625-69.992188zm-249.753906-237.394531c34.210937 0 62.046875 27.832031 62.046875 62.046875 0 34.210937-27.835938 62.042969-62.046875 62.042969-34.210938 0-62.046875-27.832032-62.046875-62.042969 0-34.214844 27.835937-62.046875 62.046875-62.046875zm-86.191407 92.515625h15.441407c3.03125 7.019531 7.085937 13.496094 11.960937 19.253906h-47.160156c.285156-10.660156 9.027344-19.253906 19.757812-19.253906zm159.605469 0c10.910157 0 19.785157 8.875 19.785157 19.785156v13.9375c0 10.910157-8.875 19.78125-19.785157 19.78125h-159.605469c-10.730468 0-19.472656-8.589843-19.757812-19.25h64.230469c12.035156 7.785157 26.351562 12.324219 41.71875 12.324219 15.367187 0 29.6875-4.539062 41.71875-12.324219h23.085937c4.140625 0 7.5-3.359375 7.5-7.5s-3.359375-7.5-7.5-7.5h-6.015625c4.878907-5.757812 8.929688-12.234375 11.964844-19.25h2.660156zm114.082031 100.449219c0-2.691406 2.191407-4.882813 4.882813-4.882813h17.285156c2.691407 0 4.882813 2.191407 4.882813 4.882813v15.644531c-4.394532-1.300781-8.917969-1.96875-13.527344-1.96875-4.605469 0-9.128906.667969-13.523438 1.96875zm49.644532 176.296875c-9.90625 15.390625-22.734375 23.867187-36.121094 23.867187s-26.210938-8.476562-36.117188-23.867187c-10.5625-16.417969-16.378906-38.390625-16.378906-61.875s5.816406-45.460938 16.378906-61.878907c9.90625-15.390624 22.730469-23.867187 36.117188-23.867187s26.214844 8.476563 36.121094 23.867187c10.5625 16.417969 16.378906 38.394532 16.378906 61.878907s-5.816406 45.457031-16.378906 61.875zm0 0"/>
    <path d="m243.480469 132.304688c30.195312 0 54.757812-24.5625 54.757812-54.757813s-24.5625-54.757813-54.757812-54.757813c-30.191407 0-54.757813 24.5625-54.757813 54.757813s24.566406 54.757813 54.757813 54.757813zm0-94.515626c21.921875 0 39.757812 17.832032 39.757812 39.757813 0 21.921875-17.835937 39.757813-39.757812 39.757813s-39.757813-17.835938-39.757813-39.757813c0-21.925781 17.835938-39.757813 39.757813-39.757813zm0 0"/>
    <path d="m243.480469 66.605469c4.144531 0 7.5-3.359375 7.5-7.5v-9.367188c0-4.140625-3.355469-7.5-7.5-7.5-4.140625 0-7.5 3.359375-7.5 7.5v9.367188c0 4.140625 3.359375 7.5 7.5 7.5zm0 0"/>
    <path d="m270.71875 85.046875h.109375.066406c4.113281 0 7.464844-3.316406 7.5-7.433594.035157-4.144531-3.292969-7.53125-7.433593-7.566406h-.113282c-4.113281-.0625-7.527344 3.289063-7.5625 7.433594-.039062 4.140625 3.292969 7.527343 7.433594 7.566406zm0 0"/>
    <path d="m243.359375 110.054688.113281.003906h.066406c4.109376 0 7.460938-3.316406 7.5-7.4375.035157-4.140625-3.292968-7.527344-7.4375-7.5625l-.109374-.003906c-.023438 0-.046876 0-.066407 0-4.113281 0-7.464843 3.316406-7.5 7.4375-.035156 4.140624 3.292969 7.527343 7.433594 7.5625zm0 0"/>
    <path d="m218.921875 85.046875h.066406c4.113281 0 7.464844-3.316406 7.5-7.433594.035157-4.144531-3.292969-7.53125-7.433593-7.566406h-.113282c-4.148437-.0625-7.527344 3.289063-7.566406 7.433594-.035156 4.140625 3.292969 7.527343 7.433594 7.5625zm0 0"/>
    <path d="m444.5 255.601562c-4.140625 0-7.5 3.359376-7.5 7.5v117.945313c0 4.140625 3.359375 7.5 7.5 7.5 4.144531 0 7.5-3.359375 7.5-7.5v-117.945313c0-4.140624-3.355469-7.5-7.5-7.5zm0 0"/>
    <path d="m18.917969 259.320312h.058593c4.117188 0 7.46875-3.320312 7.5-7.441406.03125-4.144531-3.300781-7.527344-7.441406-7.558594l-11.476562-.085937c-.019532 0-.039063 0-.058594 0-4.117188 0-7.46875 3.320313-7.5 7.441406-.03125 4.144531 3.300781 7.527344 7.441406 7.558594zm0 0"/>
    <path d="m20.039062 272.785156-9.984374 5.664063c-3.601563 2.042969-4.867188 6.621093-2.824219 10.222656 1.382812 2.4375 3.917969 3.800781 6.53125 3.800781 1.253906 0 2.527343-.3125 3.695312-.976562l9.980469-5.664063c3.605469-2.042969 4.867188-6.621093 2.824219-10.222656-2.046875-3.605469-6.621094-4.863281-10.222657-2.824219zm0 0"/>
    <path d="m27.949219 217.941406-9.894531-5.816406c-3.570313-2.09375-8.167969-.902344-10.265626 2.667969-2.097656 3.574219-.902343 8.167969 2.667969 10.269531l9.894531 5.8125c1.195313.699219 2.5 1.03125 3.792969 1.03125 2.570313 0 5.078125-1.324219 6.472657-3.699219 2.097656-3.574219.90625-8.167969-2.667969-10.265625zm0 0"/>
    <path d="m262.742188 251.675781c-.03125-4.121093-3.382813-7.441406-7.5-7.441406-.019532 0-.039063 0-.058594 0l-11.476563.085937c-4.140625.03125-7.472656 3.414063-7.441406 7.558594.03125 4.121094 3.382813 7.441406 7.5 7.441406h.054687l11.476563-.085937c4.144531-.03125 7.476563-3.414063 7.445313-7.558594zm0 0"/>
    <path d="m252.683594 278.449219-9.980469-5.664063c-3.601563-2.042968-8.179687-.777344-10.222656 2.824219-2.046875 3.601563-.78125 8.179687 2.820312 10.222656l9.984375 5.664063c1.167969.664062 2.4375.976562 3.691406.976562 2.613282 0 5.152344-1.363281 6.53125-3.800781 2.042969-3.601563.78125-8.179687-2.824218-10.222656zm0 0"/>
    <path d="m244.683594 212.125-9.894532 5.816406c-3.570312 2.097656-4.765624 6.691406-2.667968 10.265625 1.398437 2.375 3.902344 3.699219 6.472656 3.699219 1.292969 0 2.601562-.332031 3.792969-1.03125l9.898437-5.8125c3.570313-2.101562 4.765625-6.695312 2.667969-10.269531-2.101563-3.570313-6.695313-4.765625-10.269531-2.667969zm0 0"/>
</svg>