<?xml version="1.0" encoding="iso-8859-1"?>
<!-- Generator: Adobe Illustrator 19.0.0, SVG Export Plug-In . SVG Version: 6.00 Build 0)  -->
<svg version="1.1" id="Capa_1" xmlns="http://www.w3.org/2000/svg" xmlns:xlink="http://www.w3.org/1999/xlink" x="0px" y="0px"
	 viewBox="0 0 501.336 501.336" style="enable-background:new 0 0 501.336 501.336;" xml:space="preserve">
<path style="fill:#92E0C0;" d="M367.94,141.336c1.768-5,2.728-10.392,2.728-16l0,0c0-10.384-3.368-20.488-9.6-28.8l-38.4-51.2
	l-24,32h-96l-24-32l-38.4,51.2c-6.232,8.312-9.6,18.416-9.6,28.8l0,0c0,5.608,0.96,11,2.728,16c0,0,37.272,72,117.272,72
	S367.94,141.336,367.94,141.336z"/>
<g>
	<path style="fill:#48C397;" d="M370.036,117.592c-20.776,1.192-41.112,6.664-59.608,15.936c7.872-11.696,12.24-25.632,12.24-40.192
		c0-12.4-3.336-24.688-9.408-35.456l-14.592,19.456h-96L188.076,57.88c-6.08,10.768-9.408,23.056-9.408,35.456
		c0,14.56,4.368,28.496,12.24,40.192c-18.496-9.272-38.832-14.744-59.608-15.936c-0.416,2.544-0.632,5.136-0.632,7.744
		c0,5.608,0.96,11,2.728,16c0,0,37.272,72,117.272,72s117.272-72,117.272-72c1.768-5,2.728-10.392,2.728-16
		C370.668,122.728,370.452,120.136,370.036,117.592z"/>
	<path style="fill:#48C397;" d="M186.668,317.336c15.872,42.32,24,87.152,24,132.352v43.648h80v-43.648
		c0-45.2,8.128-90.032,24-132.352v-24h-128V317.336z"/>
</g>
<path style="fill:#0FA196;" d="M186.668,317.336c2.968,7.912,5.568,15.928,7.992,24h112.016c2.424-8.072,5.024-16.088,7.992-24v-24
	h-128V317.336z"/>
<path style="fill:#92E0C0;" d="M354.668,243.128c24.456-20.544,40-51.352,40-85.792v-16h-16c-30.272,0-58.088,10.504-80,28.072h-96
	c-21.912-17.568-49.728-28.072-80-28.072h-16v16c0,34.44,15.544,65.248,40,85.792c0,0,56,42.208,104,42.208
	S354.668,243.128,354.668,243.128z"/>
<path style="fill:#48C397;" d="M385.7,196.368c-20.288,20.28-46.976,31.752-75.496,32.768c-0.664-0.984-1.216-2.04-1.928-2.992
	l-0.6-0.8c9.6-12.424,14.992-27.832,14.992-44.008c0-8.456-1.576-16.848-4.472-24.76c-6.904,3.712-13.464,7.968-19.528,12.832h-96
	c-6.072-4.864-12.624-9.128-19.528-12.832c-2.896,7.912-4.472,16.304-4.472,24.76c0,16.176,5.392,31.584,15,44.008l-0.592,0.792
	c-0.72,0.952-1.272,2.016-1.936,3c-28.52-1.024-55.208-12.488-75.504-32.768l-3-3c6.648,19.576,18.528,36.736,34.032,49.76
	c0,0,13.224,9.936,32.272,20.16l0,0l0,0c20.224,10.856,47.008,22.048,71.728,22.048c48,0,104-42.208,104-42.208
	c15.496-13.024,27.376-30.184,34.032-49.76L385.7,196.368z"/>
<path style="fill:#92E0C0;" d="M289.068,64.536l-38.4-51.2l-38.4,51.2c-6.232,8.312-9.6,18.416-9.6,28.8
	c0,16.696,8.528,31.4,21.464,40h53.08c12.928-8.6,21.456-23.304,21.456-40C298.668,82.952,295.3,72.848,289.068,64.536z"/>
<path style="fill:#48C397;" d="M292.404,116.984l-41.736-55.648l-41.736,55.648c3.728,6.568,8.928,12.184,15.2,16.352h53.08
	C283.476,129.168,288.676,123.552,292.404,116.984z"/>
<g>
	<path style="fill:#92E0C0;" d="M306.1,253.336h-7.432h-96h-7.432c-36.224,0-70.96-14.392-96.568-40c0,57.44,46.56,104,104,104h48
		h48c57.44,0,104-46.56,104-104C377.06,238.944,342.316,253.336,306.1,253.336z"/>
	<path style="fill:#92E0C0;" d="M289.068,152.536l-38.4-51.2l-38.4,51.2c-6.232,8.312-9.6,18.416-9.6,28.8
		c0,16.696,8.528,31.4,21.464,40h53.08c12.928-8.6,21.456-23.304,21.456-40C298.668,170.952,295.3,160.848,289.068,152.536z"/>
</g>
<g>
	<path style="fill:#48C397;" d="M298.668,253.336h-96h-7.432c-4.88,0-9.728-0.312-14.536-0.824
		c-1.328,5.496-2.032,11.152-2.032,16.824c0,18.312,6.928,34.992,18.216,47.712c1.928,0.104,3.832,0.288,5.784,0.288h48h48
		c1.952,0,3.856-0.184,5.784-0.288c11.288-12.72,18.216-29.4,18.216-47.712c0-5.672-0.704-11.328-2.032-16.824
		c-4.808,0.512-9.656,0.824-14.536,0.824H298.668z"/>
	<path style="fill:#48C397;" d="M250.668,149.336l-41.736,55.648c3.728,6.568,8.928,12.184,15.192,16.352h53.08
		c6.264-4.168,11.472-9.792,15.2-16.352L250.668,149.336z"/>
</g>
<path style="fill:#92E0C0;" d="M250.668,317.336L250.668,317.336c-26.512,0-48-21.488-48-48l0,0c0-10.384,3.368-20.488,9.6-28.8
	l38.4-51.2l38.4,51.2c6.232,8.312,9.6,18.416,9.6,28.8l0,0C298.668,295.848,277.18,317.336,250.668,317.336z"/>
<path d="M397.012,207.68c-3.272,3.272-6.72,6.312-10.272,9.184c10.264-17.928,15.928-38.336,15.928-59.528v-24h-24
	c-0.232,0-0.448,0.032-0.68,0.032c0.384-2.648,0.68-5.32,0.68-8.032c0-12.04-3.976-23.976-11.2-33.6L322.668,32l-24.28,32.376
	c-0.944-1.568-1.824-3.176-2.92-4.64L250.668,0l-44.8,59.736c-1.104,1.464-1.976,3.08-2.92,4.64L178.668,32l-44.8,59.736
	c-7.224,9.624-11.2,21.56-11.2,33.6c0,2.712,0.296,5.376,0.68,8.032c-0.232-0.008-0.456-0.032-0.68-0.032h-24v24
	c0,21.152,5.648,41.52,15.856,59.408c-3.52-2.848-6.96-5.824-10.2-9.064l-13.656-13.656v19.312
	c0,54.064,38.504,99.296,89.528,109.728c8.088,22.128,13.976,44.816,17.696,67.888c-3.016-4.032-6.232-7.936-9.856-11.56
	l-11.712-11.712l-11.312,11.312l11.712,11.712c16.728,16.736,25.944,38.976,25.944,62.632v48h96v-24
	c0-23.656,9.216-45.896,25.944-62.632l11.712-11.712l-11.312-11.312L313.3,403.392c-5.056,5.056-9.504,10.544-13.368,16.368
	c2.672-33.016,9.768-65.416,21.208-96.696c51.024-10.432,89.528-55.664,89.528-109.728v-19.312L397.012,207.68z M306.668,93.336
	c0-3.888-0.56-7.728-1.36-11.52l17.36-23.144l32,42.664c5.16,6.872,8,15.4,8,24c0,3.136-0.488,6.192-1.2,9.2
	c-12.408,1.56-24.504,4.696-36.072,9.632l6.272,14.72c14.872-6.336,30.688-9.552,47-9.552h8v8c0,30.8-13.536,59.832-36.904,79.472
	l-1.912,1.48c-13.272,4.544-27.304,7.048-41.752,7.048h-4.992c-1.592-3.36-3.4-6.616-5.64-9.6l-8.712-11.616
	c12.56-10.584,19.912-26.144,19.912-42.784c0-2.496-0.272-4.976-0.608-7.44c4.464-3.4,9.128-6.568,14.008-9.304l-7.832-13.952
	c-3.784,2.12-7.448,4.488-11.024,6.968c-1.616-3.456-3.456-6.808-5.752-9.872l-8.712-11.616
	C299.316,125.536,306.668,109.976,306.668,93.336z M250.668,309.336c-22.056,0-40-17.944-40-40c0-8.6,2.84-17.128,8-24l32-42.664
	l32,42.664c5.16,6.872,8,15.4,8,24C290.668,291.392,272.724,309.336,250.668,309.336z M210.668,181.336c0-8.6,2.84-17.128,8-24
	l32-42.664l32,42.664c5.16,6.872,8,15.4,8,24c0,11.568-4.992,22.408-13.536,29.96L250.668,176l-26.464,35.288
	C215.66,203.744,210.668,192.904,210.668,181.336z M218.668,69.336l32-42.664l32,42.664c5.16,6.872,8,15.4,8,24
	c0,11.568-4.992,22.408-13.536,29.96L250.668,88l-26.464,35.288c-8.544-7.544-13.536-18.384-13.536-29.952
	C210.668,84.736,213.508,76.208,218.668,69.336z M138.668,125.336c0-8.6,2.84-17.128,8-24l32-42.664l17.36,23.152
	c-0.8,3.784-1.36,7.624-1.36,11.512c0,16.64,7.352,32.2,19.912,42.784l-8.712,11.616c-2.304,3.064-4.144,6.424-5.76,9.888
	c-17.912-12.408-38.64-20.288-60.232-23.064C139.156,131.544,138.668,128.48,138.668,125.336z M108.596,232.52
	c18.264,13.712,39.488,22.856,62.328,26.76l2.696-15.776c-6.952-1.184-13.72-2.952-20.288-5.208l-1.512-1.288
	c-23.616-19.84-37.152-48.872-37.152-79.672v-8h8c26.592,0,51.6,8.536,72.608,24.56c-0.336,2.464-0.608,4.944-0.608,7.44
	c0,16.64,7.352,32.2,19.912,42.784l-8.712,11.616c-2.24,2.984-4.048,6.24-5.64,9.6h-4.992c-3.472,0-6.92-0.144-10.352-0.416
	l-1.28,15.944c3.856,0.312,7.736,0.472,11.632,0.472h0.08c-0.384,2.648-0.648,5.32-0.648,8c0,15.664,6.48,29.824,16.88,40h-8.88
	C156.3,309.336,117.508,276.296,108.596,232.52z M282.668,449.688v35.648h-64v-35.648c0-42.584-7.056-84.424-20.816-124.592
	c1.608,0.064,3.192,0.24,4.816,0.24h48h48c1.624,0,3.208-0.176,4.816-0.24C289.724,365.264,282.668,407.104,282.668,449.688z
	 M298.668,309.336h-8.88c10.4-10.176,16.88-24.336,16.88-40c0-2.68-0.264-5.352-0.656-8h0.08c31.664,0,61.776-10.112,86.64-28.808
	C383.828,276.304,345.028,309.336,298.668,309.336z"/>
<path d="M242.668,403.968v25.368h16v-25.368c0-12.456,4.848-24.168,13.656-32.976l-11.312-11.312
	C249.18,371.504,242.668,387.232,242.668,403.968z"/>
<g>
</g>
<g>
</g>
<g>
</g>
<g>
</g>
<g>
</g>
<g>
</g>
<g>
</g>
<g>
</g>
<g>
</g>
<g>
</g>
<g>
</g>
<g>
</g>
<g>
</g>
<g>
</g>
<g>
</g>
</svg>
