<svg height="50px" viewBox="0 0 511 511.99942" width="50px" xmlns="http://www.w3.org/2000/svg"><path d="m262.144531 153.667969-246.449219 246.445312c-10.25 10.253907-10.25 26.875 0 37.125 10.253907 10.25 26.875 10.25 37.125 0l22.878907 22.449219c-10.25 10.25-10.25 26.871094 0 37.125 10.253906 10.25 26.875 10.25 37.125 0l247.148437-247.152344zm0 0" fill="#00bd4f"/><path d="m499.015625 69.925781c-2.878906-2.214843-5.90625-4.027343-9.019531-5.464843 15.511718-18.558594 19.765625-40.433594 9.121094-51.078126-11.714844-11.714843-37.042969-5.382812-56.566407 14.140626-19.527343 19.527343-25.859375 44.855468-14.144531 56.570312l-22.417969 22.417969c18.15625 18.160156 47.601563 18.160156 65.761719 0l27.773438-27.773438c2.5-2.5 2.296874-6.660156-.507813-8.8125zm0 0" fill="#00bd4f"/><path d="m442.578125 13.484375c-2.15625-2.800781-6.316406-3.007813-8.816406-.507813l-27.773438 27.773438c-18.160156 18.160156-18.160156 47.601562 0 65.761719l32.878907-32.878907c15.632812-15.632812 18.410156-41.039062 3.710937-60.148437zm0 0" fill="#60f375"/><path d="m470.832031 41.667969c-11.324219-11.324219-34.328125-6.6875-53.855469 12.839843-19.523437 19.523438-28.179687 46.546876-16.855468 57.871094 11.324218 11.324219 38.34375 2.667969 57.871094-16.859375 19.523437-19.527343 24.164062-42.527343 12.839843-53.851562zm0 0" fill="#28d05b"/><path d="m478.382812 105.730469c-24.171874-18.585938-56.402343-15.210938-76.316406 4.707031 19.835938-19.839844 23.355469-52.070312 4.703125-76.320312-2.730469-3.554688-8.011719-3.8125-11.179687-.644532l-35.246094 35.246094c-15.097656 15.097656-20.300781 36.34375-15.609375 55.683594-2.679687-1.597656-5.800781-2.53125-9.144531-2.53125-9.898438 0-17.921875 8.023437-17.921875 17.917968 0 4.949219 2.007812 9.429688 5.25 12.671876l-307.230469 307.226562c-10.25 10.25-10.25 26.871094 0 37.125 10.25 10.25 26.871094 10.25 37.121094 0l330.453125-330.453125c20.554687 6.894531 44.148437 2.167969 60.519531-14.203125l35.242188-35.242188c3.171874-3.171874 2.914062-8.449218-.640626-11.183593zm0 0" fill="#60f375"/><path d="m478.382812 105.730469c-6.363281-4.890625-13.285156-8.261719-20.390624-10.210938-.058594.058594-.121094.125-.179688.183594l-35.242188 35.242187c-11.308593 11.304688-29.703124 11.304688-41.011718-.003906-9.851563-9.847656-24.84375-11.414062-36.332032-4.699218 2.316407 8.355468 6.492188 16.304687 12.550782 23.175781l-344.550782 344.550781c.742188.992188 1.5625 1.945312 2.460938 2.84375 10.253906 10.25 26.871094 10.25 37.125 0l308.035156-308.039062c3.019532 3.019531 7.191406 4.886718 11.796875 4.886718 9.210938 0 16.679688-7.46875 16.679688-16.683594 0-3.636718-1.179688-6.992187-3.15625-9.734374 19.84375 5.535156 42.011719.515624 57.613281-15.085938l35.242188-35.242188c3.171874-3.171874 2.914062-8.449218-.640626-11.183593zm0 0" fill="#28d05b"/><path d="m339.007812 109.363281c-2.882812-2.210937-5.90625-4.023437-9.019531-5.460937 15.507813-18.558594 19.761719-40.4375 9.121094-51.078125-11.71875-11.71875-37.042969-5.386719-56.570313 14.140625-19.527343 19.527344-25.859374 44.851562-14.140624 56.570312l-22.421876 22.417969c18.160157 18.160156 47.601563 18.160156 65.761719 0l27.777344-27.777344c2.496094-2.496093 2.292969-6.65625-.507813-8.8125zm0 0" fill="#00bd4f"/><path d="m282.566406 52.921875c-2.152344-2.800781-6.316406-3.003906-8.8125-.507813l-27.777344 27.777344c-18.160156 18.160156-18.160156 47.601563 0 65.761719l32.882813-32.878906c15.632813-15.636719 18.40625-41.039063 3.707031-60.152344zm0 0" fill="#60f375"/><path d="m310.820312 81.109375c-11.324218-11.324219-34.328124-6.6875-53.851562 12.835937-19.527344 19.527344-28.183594 46.546876-16.855469 57.875 11.324219 11.324219 38.339844 2.664063 57.867188-16.859374 19.527343-19.527344 24.164062-42.527344 12.839843-53.851563zm0 0" fill="#28d05b"/><path d="m318.371094 145.171875c-24.171875-18.585937-56.398438-15.210937-76.316406 4.703125 19.835937-19.835938 23.359374-52.066406 4.707031-76.316406-2.734375-3.554688-8.011719-3.8125-11.183594-.644532l-35.242187 35.242188c-16.371094 16.371094-21.097657 39.964844-14.207032 60.519531l-170.433594 170.433594c-10.25 10.253906-10.25 26.871094 0 37.125 10.253907 10.25 26.875 10.25 37.125 0l170.433594-170.433594c20.554688 6.890625 44.148438 2.164063 60.519532-14.207031l35.242187-35.242188c3.167969-3.167968 2.910156-8.449218-.644531-11.179687zm0 0" fill="#60f375"/><path d="m318.371094 145.171875c-6.363282-4.894531-13.28125-8.265625-20.390625-10.210937-.058594.054687-.121094.125-.179688.179687l-35.242187 35.242187c-11.304688 11.308594-29.703125 11.304688-41.011719 0-9.847656-9.847656-24.84375-11.414062-36.332031-4.703124 2.316406 8.359374 6.496094 16.304687 12.550781 23.179687l-184.527344 184.53125c.738281.992187 1.558594 1.941406 2.457031 2.84375 10.253907 10.25 26.875 10.25 37.125 0l170.433594-170.433594c20.554688 6.890625 44.148438 2.164063 60.519532-14.207031l35.242187-35.242188c3.167969-3.167968 2.910156-8.445312-.644531-11.179687zm0 0" fill="#28d05b"/><path d="m459.511719 229.992188c-2.882813-2.214844-5.90625-4.027344-9.019531-5.464844 15.507812-18.554688 19.761718-40.433594 9.121093-51.078125-11.71875-11.714844-40.042969-7.382813-59.570312 12.144531-19.527344 19.523438-22.859375 46.851562-11.140625 58.566406l-22.421875 22.421875c18.160156 18.15625 47.601562 18.15625 65.761719 0l27.773437-27.777343c2.5-2.5 2.296875-6.660157-.503906-8.8125zm0 0" fill="#00bd4f"/><path d="m403.070312 173.550781c-2.152343-2.800781-6.3125-3.003906-8.8125-.507812l-27.777343 27.777343c-18.15625 18.15625-18.15625 47.601563 0 65.761719l32.882812-32.882812c15.632813-15.632813 18.410157-41.035157 3.707031-60.148438zm0 0" fill="#60f375"/><path d="m431.324219 201.738281c-11.324219-11.328125-34.328125-6.691406-53.851563 12.835938-19.527344 19.527343-28.183594 46.546875-16.855468 57.875 11.324218 11.324219 38.339843 2.664062 57.867187-16.863281 19.527344-19.527344 24.167969-42.523438 12.839844-53.847657zm0 0" fill="#28d05b"/><path d="m438.875 265.796875c-24.171875-18.582031-56.398438-15.210937-76.316406 4.707031 19.835937-19.835937 23.359375-52.070312 4.707031-76.320312-2.734375-3.550782-8.011719-3.8125-11.183594-.640625l-35.242187 35.242187c-16.371094 16.371094-21.097656 39.964844-14.207032 60.519532l-170.390624 170.390624c-10.25 10.25-10.25 26.871094 0 37.121094 10.246093 10.246094 26.878906 10.246094 37.125 0l170.390624-170.390625c20.554688 6.894531 44.148438 2.167969 60.519532-14.203125l35.242187-35.242187c3.171875-3.171875 2.910157-8.449219-.644531-11.183594zm0 0" fill="#60f375"/><path d="m438.875 265.800781c-6.363281-4.894531-13.28125-8.265625-20.390625-10.214843-.058594.058593-.121094.125-.179687.183593l-35.238282 35.242188c-11.308594 11.304687-29.707031 11.304687-41.015625-.003907-9.847656-9.847656-24.839843-11.414062-36.332031-4.699218 2.316406 8.355468 6.496094 16.304687 12.554688 23.179687l-184.488282 184.484375c.742188.992188 1.558594 1.945313 2.460938 2.84375 5.125 5.128906 11.847656 7.683594 18.566406 7.683594 7.15625 0 13.433594-2.558594 18.554688-7.683594l170.390624-170.390625c20.554688 6.894531 44.148438 2.167969 60.519532-14.203125l35.242187-35.242187c3.171875-3.167969 2.910157-8.449219-.644531-11.179688zm0 0" fill="#28d05b"/><path d="m256.910156 428.277344c-3.839844 0-7.675781-1.464844-10.605468-4.394532l-157.691407-157.691406c-5.859375-5.855468-5.859375-15.355468 0-21.210937 5.855469-5.859375 15.355469-5.859375 21.214844 0l157.6875 157.6875c5.859375 5.859375 5.859375 15.355469 0 21.214843-2.929687 2.929688-6.769531 4.394532-10.605469 4.394532zm0 0" fill="#ffc98c"/><path d="m278.121094 407.0625c-3.835938 0-7.675782-1.464844-10.605469-4.394531l-157.6875-157.6875c-5.859375-5.859375-5.859375-15.355469 0-21.214844 5.855469-5.855469 15.351563-5.859375 21.210937 0l157.6875 157.691406c5.859376 5.855469 5.859376 15.351563 0 21.210938-2.925781 2.929687-6.765624 4.394531-10.605468 4.394531zm0 0" fill="#ffb578"/><path d="m501.125 62.136719c13.660156-20.257813 15.320312-42.105469 3.328125-54.09375-11.988281-11.988281-33.832031-10.328125-54.089844 3.332031-.578125-.847656-1.183593-1.683594-1.8125-2.5-4.929687-6.40625-14.382812-6.914062-20.0625-1.238281l-18.878906 18.878906c-6.136719-4.371094-14.253906-3.4375-19.304687 1.628906-38.492188 38.484375-35.949219 35.875-37.914063 38.082031-1.707031-26.34375-30.492187-36.6875-62.046875-15.410156-2.011719-2.941406-4.996094-7.226562-11.488281-7.648437-3.867188-.238281-7.652344 1.175781-10.386719 3.914062l-18.882812 18.878907c-2.488282-1.777344-5.492188-2.792969-8.589844-2.792969h-.089844c-3.949219 0-7.820312 1.609375-10.621094 4.421875l-35.242187 35.230468c-16.792969 16.792969-23.207031 40.96875-17.347657 63.671876l-47.582031 47.582031c-14.472656-6.90625-31.222656 3.039062-32.117187 19.050781-16.089844.863281-25.929688 17.765625-19.0625 32.128906l-76.238282 76.238282c-2.929687 2.929687-2.929687 7.675781 0 10.605468 1.464844 1.464844 3.386719 2.199219 5.304688 2.199219 1.921875 0 3.839844-.734375 5.304688-2.199219l75.316406-75.3125 26.515625 26.515625-112.441407 112.441407c-2.929687 2.929687-2.929687 7.679687 0 10.609374 1.464844 1.464844 3.386719 2.195313 5.304688 2.195313 1.921875 0 3.839844-.730469 5.304688-2.195313l112.441406-112.441406 12.554687 12.554688-134.871093 134.875c-2.929688 2.929687-2.929688 7.675781 0 10.605468 1.460937 1.464844 3.382812 2.195313 5.304687 2.195313 1.917969 0 3.835937-.730469 5.300781-2.195313l134.875-134.871093 26.515625 26.515625-135.601562 135.605468c-2.929688 2.929688-2.929688 7.679688 0 10.609376 1.460937 1.460937 3.382812 2.195312 5.300781 2.195312 1.921875 0 3.839844-.734375 5.304688-2.195312l135.605468-135.605469 12.550782 12.550781-67.632813 67.636719c-2.929687 2.929687-2.929687 7.675781 0 10.605469 1.460937 1.464843 3.382813 2.195312 5.300781 2.195312 1.921875 0 3.839844-.730469 5.304688-2.195312l67.636718-67.636719 26.519532 26.519531-75.320313 75.320312c-2.929687 2.929688-2.929687 7.679688 0 10.609376 1.464844 1.460937 3.382813 2.195312 5.304688 2.195312 1.917969 0 3.839843-.734375 5.304687-2.195312l76.238282-76.242188c14.234374 6.808594 31.261718-2.847656 32.128906-19.070312 15.996094-.878907 25.949218-17.628907 19.054687-32.109376l47.519531-47.519531c13.671876 3.515625 28.253907 2.6875 41.683594-2.757812 15.675782-6.363281 19.449219-12.054688 57.222656-49.84375 4.996094-4.972657 6.042969-13.09375 1.625-19.292969l18.882813-18.878906c5.695313-5.703125 5.144531-15.152344-1.242187-20.066406-.816407-.625-1.648438-1.230469-2.496094-1.808594 20.910156-31.085938 8.820312-58.164063-2.789063-51.449219-3.585937 2.070313-4.816406 6.660156-2.742187 10.246094 4.480468 7.746093 1.074218 21.691406-8.054688 34.464843-1.070312-.355468-2.152344-.664062-3.242187-.945312-1.273438-14.515625-11.546875-24.960938-26.246094-26.25-1.242187-4.785156-2.90625-8.667969-4.964844-12.390625 25.964844-4.523437 35.042969-17.957031 70.785157-53.707031 2.8125-2.800782 4.410156-6.683594 4.402343-10.640625.011719-3.117188-1.003906-6.144531-2.785156-8.648438l18.882813-18.882812c2.738281-2.738281 4.164062-6.523438 3.910156-10.386719-.371094-5.617188-3.460938-8.625-7.652344-11.488281zm-7.277344-43.484375c6.859375 6.855468 3.988282 22.375-6.304687 36.75-1.074219-.355469-2.15625-.664063-3.246094-.949219-1.289063-14.613281-11.640625-24.96875-26.246094-26.253906-.285156-1.089844-.59375-2.171875-.945312-3.242188 14.367187-10.292969 29.886719-13.164062 36.742187-6.304687zm-56.0625.902344c2.441406 3.503906 3.964844 6.773437 5.097656 10.265624-8.34375 2.328126-15.894531 6.597657-22.683593 11.867188-.328125-.6875-1.480469-2.9375-1.523438-3.019531zm-123.988281 113.726562c-15.996094-8.644531-34.007813-9.972656-50.230469-4.9375 3.226563-10.367188 3.808594-21.3125 1.695313-31.933594 25.820312-23.230468 51.84375-15.875 42.128906 11.210938-1.734375 4.855468 1.863281 10.03125 7.058594 10.03125 3.160156 0 5.992187-2 7.0625-4.96875 0-.011719 0-.011719 0-.019532.433593-1.207031.804687-2.40625 1.140625-3.601562 3.453125 1.121094 6.738281 2.636719 10.269531 5.097656zm20.03125-75.1875c6.855469 6.859375 3.988281 22.378906-6.308594 36.75-1.070312-.355469-2.15625-.664062-3.25-.949219-1.277343-14.636719-11.671875-24.972656-26.242187-26.25-.28125-1.089843-.59375-2.175781-.945313-3.246093 14.371094-10.292969 29.886719-13.160157 36.746094-6.304688zm-56.0625.90625c2.433594 3.496094 3.964844 6.773438 5.097656 10.265625-8.316406 2.324219-15.84375 6.558594-22.691406 11.867187-.480469-1.015624-.992187-2.019531-1.527344-3.011718zm-72.113281 54.433594 35.242187-35.246094c16.101563 21.125 13.191407 49.15625-4.128906 66.355469-2.746094 2.746093-3.210937 7.390625.25 10.851562.011719 0 .019531.011719.019531.019531 1.25 1.128907 2.789063 1.789063 4.46875 1.910157l.023438.011719c2.191406 0 4.117187-.371094 6.058594-2.402344 9.480468-9.359375 22.011718-14.519532 35.28125-14.519532 11.425781 0 22.085937 3.898438 30.863281 10.609376l-35.242188 35.242187c-9.722656 9.710937-22.652343 15.0625-36.402343 15.070313-8.480469 0-13.625-1.980469-15.289063-2.175782-2.839844-1.515625-6.441406-1.078125-8.832031 1.3125l-49.792969 49.792969-26.515625-26.519531 42.042969-42.042969c3.011719 5.507813 6.796875 10.597656 11.222656 15.042969 1.183594 1.472656 4.238281 2.984375 7.558594 2.023437 5.371093-1.585937 7.222656-8.390625 3.171875-12.503906-19.90625-19.871094-20.308594-52.523437 0-72.832031zm-26.871094 147.441406 46.648438-46.648438c7.558593 1.949219 15.414062 2.566407 23.332031 1.777344l-57.425781 57.425782c-4.28125-4.28125-8.480469-8.480469-12.554688-12.554688zm94.015625 136.445312c-147.039063-147.039062-137.246094-138.648437-141.75-138.648437-4.183594 0-7.5 3.40625-7.5 7.5 0 4.507813-8.605469-5.492187 138.679687 141.792969 4.683594 4.683594 1.40625 12.804687-5.300781 12.804687 1 0-2.648437.457031-5.304687-2.195312-169.8125-169.820313-159.894532-158.347657-159.894532-163.003907 0-6.617187 8.0625-10.050781 12.804688-5.304687 6.773438 6.777344 17.027344-2.890625 11.113281-10.046875-.816406-1-2.691406-2.445312-2.707031-5.867188.035156-6.792968 8.1875-9.945312 12.800781-5.300781 170.644531 170.644531 159.875 158.347657 159.902344 163-.039063 6.667969-7.96875 10.007813-12.84375 5.269531zm25.40625-110.1875-46.582031 46.582032c-4.089844-4.09375-8.285156-8.289063-12.550782-12.550782 10.96875-10.96875 36.675782-36.675781 57.347657-57.351562-.765625 7.742188-.207031 15.59375 1.785156 23.320312zm100.792969 19.773438c-9.710938 9.710938-22.640625 15.0625-36.402344 15.070312-8.492188 0-13.65625-1.980468-15.28125-2.175781-2.839844-1.515625-6.441406-1.082031-8.835938 1.3125l-49.730468 49.726563c-7.445313-7.449219-16.515625-16.515625-26.515625-26.515625l41.980469-41.980469c3.035156 5.554688 6.863281 10.691406 11.347656 15.171875 4.660156 4.660156 12.800781 1.421875 12.800781-5.308594 0-2-.777344-3.878906-2.199219-5.300781-19.921875-19.921875-20.277344-52.554688.003906-72.835938l35.25-35.25c19.382813 25.636719 8.546876 55.226563-4.140624 66.363282-2.933594 2.953125-2.867188 7.605468-.121094 10.472656.003906.003906.054687.070312.0625.070312 3.085937 2.9375 7.625 3.148438 10.878906-.152343 17.75-17.523438 45.589844-19.652344 66.15625-3.910157zm-.71875-127.273438c2.441406 3.503907 3.964844 6.777344 5.097656 10.269532-8.273438 2.3125-15.816406 6.527344-22.691406 11.863281-.480469-1.015625-.992188-2.019531-1.527344-3.011719zm31.53125 40.375c-.710938 7.714844-3.738282 9.492188-1.632813 13.984376 2.867188 6.027343 11.582031 5.597656 13.84375-.660157 0-.011719 0-.011719 0-.011719.433594-1.214843.804688-2.421874 1.144531-3.625 3.421876 1.109376 6.710938 2.621094 10.269532 5.097657l-19.121094 19.121093c-15.996094-8.640624-34.054688-9.960937-50.226562-4.933593 3.132812-10.078125 3.867187-20.996094 1.6875-31.9375 22.035156-19.816407 45.984374-18.101563 44.035156 2.964843zm8.699218-73.183593c-13.671874 13.660156-33.109374 18.058593-50.503906 13.121093-4.078125-1.160156-8.167968 1.292969-9.269531 5.171876-1.015625 3.628906.777344 7.296874 4.023437 8.820312l-12.660156 12.660156c-6.210937-4.429687-14.355468-3.355468-19.304687 1.628906l-35.234375 35.234376v.003906l-.003906-.003906-5.5625 5.566406c-16.613282 16.609375-65.269532 65.265625-81.53125 81.527344-8.8125-8.8125-17.757813-17.757813-26.515626-26.515626 87.714844-87.714843 82.347657-82.179687 83.089844-83.441406 3.121094-2.644531.53125-.183594 39.304688-38.960937 2.8125-2.808594 4.410156-6.691407 4.402344-10.648438.011718-3.125-1-6.148437-2.785157-8.648437l12.535157-12.535156c3.234374 10.636718 9.035156 20.09375 16.570312 27.632812 1.421875 1.410156 3.300781 2.199219 5.3125 2.199219 6.601562 0 10.03125-8.042969 5.296875-12.808594-19.898437-19.902344-20.320313-52.492187 0-72.835937l35.246094-35.242188c3.933593 5.144531 7.078125 11.257812 8.847656 17.714844h.003906c4.617188 16.859375.007813 35.648437-12.984375 48.636718-6.785156 6.789063 3.09375 17.597657 10.613282 10.613282 17.660156-17.683594 45.679687-19.96875 66.351562-4.132813zm35.3125-52.988281c-15.742187-8.515626-33.785156-10.050782-50.234374-4.933594 3.226562-10.363282 3.808593-21.3125 1.695312-31.9375 21.929688-19.746094 45.96875-18.175782 44.039062 2.964844-.710937 7.742187-3.753906 9.507812-1.628906 13.980468 2.828125 6.027344 11.601563 5.605469 13.839844-.671875.433594-1.207031.804688-2.414062 1.144531-3.617187 3.386719 1.097656 6.6875 2.601562 10.265625 5.09375zm0 0"/></svg>