<?xml version="1.0" encoding="iso-8859-1"?>
<!-- Generator: Adobe Illustrator 19.0.0, SVG Export Plug-In . SVG Version: 6.00 Build 0)  -->
<svg version="1.1" id="Layer_1" xmlns="http://www.w3.org/2000/svg" xmlns:xlink="http://www.w3.org/1999/xlink" x="0px" y="0px"
	 viewBox="0 0 511.999 511.999" style="enable-background:new 0 0 511.999 511.999;" xml:space="preserve">
<polygon style="fill:#A0D468;" points="248.88,311.432 201.499,241.427 127.001,324.432 12.005,313.432 22.505,371.43 
	43.004,410.43 90.003,464.928 128.001,467.928 178.5,459.428 235.498,420.428 256.498,378.43 "/>
<polygon style="fill:#8CC153;" points="147.001,238.927 94.002,251.926 55.004,273.934 39.004,304.432 116.502,320.432 
	133.455,311.432 164.5,275.934 182,248.426 "/>
<polygon style="fill:#A0D468;" points="444.99,121.103 378.337,134.446 364.338,117.103 309.667,46.776 297.996,51.776 
	266.902,147.102 266.902,203.1 318.339,255.098 354.994,266.77 401.336,271.426 462.99,236.771 492.661,177.772 505.989,121.431 "/>
<path style="fill:#8CC153;" d="M465.99,94.103c0,0-32.999-24.655-33.999-24.655s-47.655-19.343-47.655-19.343l-51.67-5.328
	l7.328,24.327l31.999,53.342l21.374,8.984l75.623-15.656L465.99,94.103z"/>
<path d="M204.835,231.333c-0.219,0-0.438,0.016-0.641,0.031c-4.281,0.406-11.062,4.594-19.375,11.5
	c-14.703-9.906-41.624-18.718-86.138-3.906c-21.359,7.125-49.452,21.405-61.982,49.069c-1.953,4.342-3.297,8.467-4.203,12.248
	c-14.906,0.438-25.796,3.281-29.499,9.219c-16.312,26.219,35.53,169.338,117.434,169.338c0.734,0,1.484-0.031,2.234-0.031
	c36.936-1.188,60.889-9.123,75.763-20.654c8.25-3.406,16.452-7.5,24.452-12.406C318.87,387.086,231.99,231.333,204.835,231.333z
	 M168.477,257.926c-14.781,14.758-31.765,34.318-47.702,55.162c-4.016-1.094-8.078-2.125-12.172-3.062
	c-10.437-14.094-3.781-39.396,1.312-52.256C139.399,248.879,157.774,252.583,168.477,257.926z M84.433,268.301
	c-2.484,10.914-3.922,24.1-1.062,36.537c-10.031-1.75-19.812-3.062-28.905-3.844C57.84,291.246,65.855,278.715,84.433,268.301z
	 M58.199,416.896c-12.718-17.248-23.515-38.561-30.405-59.967c-5.641-17.467-6.641-28.717-6.453-34.092
	c2.766-0.625,7.641-1.312,15.593-1.312c23.093,0,56.795,5.688,87.95,14.844c39.421,11.594,54.311,22.592,56.452,25.561
	c2.469,3.781,10.812,17.312,14.953,34.094c4.312,17.5,1.484,28.373-1.641,34.404c-3.641,6.969-9.969,12.5-19.375,16.875
	c-12.921,6.031-30.843,9.469-53.295,10.156c-0.516,0.031-1.031,0.031-1.547,0.031c-10.672,0-21.468-3.562-32.124-10.656
	C77.854,439.896,67.73,429.834,58.199,416.896z M245.521,359.461c0.406,14.75-1.968,27.812-7.031,38.781
	c-4.406,9.562-10.765,17.529-19.312,24.186c3.828-26.998-9.843-56.717-20.03-72.215c-7-10.656-29.25-21.656-56.42-30.625
	c12.359-15.75,25.343-30.717,37.296-42.998c12.015-12.32,19.702-18.586,24.046-21.664c5.109,5.093,13.656,16.031,22.281,33.414
	C238.115,312.088,244.928,337.369,245.521,359.461z"/>
<path d="M506.895,113.056c-2.952-2.219-9.171-3.625-17.779-4.297c-8.984-17.796-28.016-42.108-67.936-60.076
	c-50.999-22.952-83.545-14.687-98.17-7.921c-6.093-4.828-11.562-7.594-16.03-7.594c-0.905,0-1.749,0.109-2.562,0.328
	c-30.016,8.312-91.067,153.401-28.094,207.822c33.421,28.89,59.436,39.585,79.482,39.585c0.156,0,0.312,0,0.484,0
	c5.234,1.562,10.625,2.938,16.14,4.031c6.469,1.281,12.733,1.875,18.749,1.875C488.615,286.809,526.785,128.149,506.895,113.056z
	 M464.193,108.556c-23.296,0.953-52.998,4.531-82.278,10.109c-2.188-3.828-4.438-7.641-6.719-11.421
	c2.25-20.562,34.405-31.952,45.265-35.218C439.304,81.744,454.271,94.244,464.193,108.556z M391.883,60.354
	c-11.202,5.578-23.249,13.734-30.748,25.077c-7.188-10.5-14.469-20.109-21.438-28.155c2.328-0.656,5-1.234,8.016-1.656
	C362.619,53.495,378.196,56.183,391.883,60.354z M273.512,196.913c-3.195-11.797-4.086-25.734-2.617-41.452
	c2.023-21.765,8.773-46.561,18.492-68.044c7.438-16.39,14.594-26.421,18.905-31.046c3.516,2.562,9.734,8,18.983,19.265
	c10.703,13.046,22.641,30.546,33.609,49.264c10.89,18.593,20.343,37.593,26.639,53.467c9,22.718,8.109,30.233,8.109,30.28
	c-2.156,13.031-7.141,26.202-13.358,35.265c-3.531,5.14-7.438,9.046-11.641,11.625c-4.421,2.703-9.265,4.031-14.827,4.031
	c-11.75,0-32.656-5.953-65.529-34.389C282.387,218.365,276.746,208.85,273.512,196.913z M485.475,164.351
	c-6.172,22.608-16.422,44.53-28.859,61.701c-9.031,12.484-18.983,22.187-29.576,28.812c-11.109,6.968-22.562,10.437-34.953,10.593
	c14.781-14.968,22-37.67,24.594-53.342c2.297-13.937-8.281-42.999-24.062-73.717c30.188-5.406,61.17-8.75,83.279-8.75
	c6.906,0,11.625,0.312,14.766,0.688C490.834,136.805,489.803,148.461,485.475,164.351z"/>
<g>
</g>
<g>
</g>
<g>
</g>
<g>
</g>
<g>
</g>
<g>
</g>
<g>
</g>
<g>
</g>
<g>
</g>
<g>
</g>
<g>
</g>
<g>
</g>
<g>
</g>
<g>
</g>
<g>
</g>
</svg>
