<?xml version="1.0" encoding="iso-8859-1"?>
<!-- Generator: Adobe Illustrator 19.0.0, SVG Export Plug-In . SVG Version: 6.00 Build 0)  -->
<svg version="1.1" id="Capa_1" xmlns="http://www.w3.org/2000/svg" xmlns:xlink="http://www.w3.org/1999/xlink" x="0px" y="0px"
	 viewBox="0 0 497.496 497.496" style="enable-background:new 0 0 497.496 497.496;" xml:space="preserve">
<path style="fill:#92E0C0;" d="M288.748,9.496L264.196,45.2c-4.56,6.64-8.88,13.408-12.968,20.296l-2.48,96l48-24l4.8-64l35.2-48
	L288.748,9.496z"/>
<path style="fill:#48C397;" d="M312.084,17.272l-35.816,51.136c-4.08-7.4-8.336-14.72-12.92-21.864
	c-4.24,6.216-8.304,12.512-12.12,18.952l-1.392,53.888l-1.088,42.112l48-24l4.8-64l35.2-48L312.084,17.272z"/>
<path style="fill:#92E0C0;" d="M233.3,45.2L208.748,9.496l-48,16l24,32.728l48,127.272l32-8l6.4-61.44
	C261.26,91.232,248.596,67.456,233.3,45.2z"/>
<path style="fill:#48C397;" d="M260.332,91.856c-4.104,6.48-7.952,13.096-11.64,19.776c-6.024-10.984-12.528-21.704-19.624-32.032
	l-43.664-62.328l-24.656,8.224l24,32.728l39.896,105.792l0,0l8.104,21.48l32-8l6.4-61.44
	C267.884,107.856,264.204,99.816,260.332,91.856z"/>
<path id="SVGCleanerId_0" style="fill:#92E0C0;" d="M209.3,93.2l-24.552-35.704l-48,16l53.672,73.184
	c22.304,30.416,35.832,76.6,35.832,114.312l30.496-59.496l-8-33.36C238.644,141.84,225.436,116.672,209.3,93.2z"/>
<g>
	<path id="SVGCleanerId_0_1_" style="fill:#92E0C0;" d="M209.3,93.2l-24.552-35.704l-48,16l53.672,73.184
		c22.304,30.416,35.832,76.6,35.832,114.312l30.496-59.496l-8-33.36C238.644,141.84,225.436,116.672,209.3,93.2z"/>
</g>
<path style="fill:#48C397;" d="M226.244,261l30.504-59.504l-8-33.36c-3.936-10.248-8.488-20.264-13.36-30.136
	c-8.44,18.472-15.4,37.528-20.784,57.048C222.02,216.92,226.244,240.216,226.244,261z"/>
<path style="fill:#92E0C0;" d="M272.748,251.544L272.748,251.544c0-37.712,12.024-74.448,34.328-104.864l53.672-73.184l-48-16
	L288.196,93.2c-41.32,60.112-63.448,131.344-63.448,204.296h54.104C274.844,282.568,272.748,267.128,272.748,251.544z"/>
<path style="fill:#ECECEC;" d="M184.748,385.96c0,35.088,28.448,63.536,63.536,63.536h0.928c35.088,0,63.536-28.448,63.536-63.536
	c0-10.8-2.752-21.416-7.992-30.856l-9.688-17.44c-7.064-12.72-12.472-26.224-16.216-40.168h-54.104l-32.008,57.608
	C187.5,364.544,184.748,375.16,184.748,385.96z"/>
<path d="M302.052,333.776c-13.936-25.096-21.304-53.528-21.304-82.232c0-36.264,11.336-70.888,32.784-100.136l60.16-82.032
	l-47.888-15.96l24-32L285.564,0l-27.96,40.664c-3.064,4.464-6.008,9.04-8.888,13.648c-2.872-4.592-5.76-9.176-8.832-13.648
	L211.924,0l-64.24,21.416l24,32l-47.88,15.96l60.16,82.032c20.504,27.96,34.28,72,34.28,109.584h0.352
	c-1.12,11.392-1.784,22.864-1.848,34.416l-31.008,55.816c-5.88,10.592-8.992,22.608-8.992,34.736c0,24.832,12.736,46.736,32,59.568
	v35.968h16v-28.064c5.104,1.784,10.448,3.072,16,3.656v40.408h16v-40.408c5.552-0.584,10.896-1.872,16-3.656v28.064h16V445.52
	c19.264-12.832,32-34.736,32-59.568c0-12.128-3.112-24.144-9-34.736L302.052,333.776z M258.108,69.576
	c3.976-6.712,8.248-13.392,12.688-19.84l21.136-30.744l31.76,10.584l-13.88,18.512l-0.24-0.08l-27.96,40.664
	c-2.824,4.104-5.544,8.264-8.184,12.456C268.644,90.24,263.324,79.6,257.5,69.208L258.108,69.576z M196.876,141.952l-47.184-64.336
	l31.88-10.624l21.136,30.744c4.024,5.856,7.92,11.896,11.568,17.96l13.704-8.256c-3.816-6.336-7.88-12.648-12.088-18.768
	l-27.96-40.664l-0.24,0.08l-13.88-18.512l31.76-10.584l21.136,30.744c14.704,21.384,27.008,44.408,36.656,68.44
	c-5.312,9.52-10.224,19.224-14.648,29.12c-2.12-4.736-4.304-9.472-6.672-14.216l-6.112-10.696l-13.888,7.936l5.888,10.288
	c4.464,8.992,8.528,18.28,12.216,27.632c-5.096,13.592-9.392,27.472-12.832,41.576C220.82,184.496,210.196,160.128,196.876,141.952z
	 M249.212,441.496h-0.92c-30.632,0-55.544-24.912-55.544-55.536c0-9.416,2.416-18.744,6.984-26.968l33.016-59.424v-2.072
	c0-71.648,21.456-140.72,62.048-199.76l21.136-30.744l31.88,10.624l-47.184,64.336c-23.472,32-35.872,69.904-35.872,109.592
	c0,31.408,8.064,62.536,23.32,90l9.696,17.448c4.56,8.224,6.976,17.552,6.976,26.968
	C304.748,416.584,279.836,441.496,249.212,441.496z"/>
<path d="M224.748,385.96c0-3.984,1.024-7.936,2.96-11.432l-13.984-7.768c-3.256,5.864-4.976,12.504-4.976,19.2
	c0,13.832,7.056,26.44,18.88,33.704l8.376-13.624C228.956,401.696,224.748,394.192,224.748,385.96z"/>
<path d="M274.076,349.312l-13.984,7.784l9.696,17.448c1.936,3.488,2.96,7.44,2.96,11.424c0,6.576-2.664,12.688-7.504,17.208
	l10.92,11.688c8-7.48,12.584-18.008,12.584-28.904c0-6.696-1.72-13.328-4.968-19.192L274.076,349.312z"/>
<g>
</g>
<g>
</g>
<g>
</g>
<g>
</g>
<g>
</g>
<g>
</g>
<g>
</g>
<g>
</g>
<g>
</g>
<g>
</g>
<g>
</g>
<g>
</g>
<g>
</g>
<g>
</g>
<g>
</g>
</svg>
