<svg viewBox="0 -9 512.00088 512" xmlns="http://www.w3.org/2000/svg"><path d="m502.039062 234.875c0 41.421875-40.300781 75.003906-90.027343 75.003906-26.09375 0-49.601563-9.25-66.039063-24.03125-7.460937-6.710937-13.472656-14.558594-17.59375-23.191406-.199218-.390625-.378906-.789062-.558594-1.179688-.0625-.128906-.121093-.269531-.179687-.398437-.019531-.03125-.03125-.0625-.042969-.082031-.289062-.636719-.597656-1.269532-.910156-1.886719-13.191406-26.644531-40.070312-44.035156-69.9375-44.234375h-1.5625c-29.867188.199219-56.746094 17.589844-69.9375 44.234375-.390625.777344-.773438 1.566406-1.132812 2.367187-.109376.230469-.207032.472657-.320313.699219-.007813.011719-.019531.03125-.027344.042969-.0625.148438-.140625.289062-.210937.4375-4.121094 8.632812-10.132813 16.480469-17.59375 23.191406-16.4375 14.78125-39.941406 24.03125-66.039063 24.03125-49.726562 0-90.027343-33.582031-90.027343-75.003906 0-124.269531 110.171874-225.015625 246.070312-225.015625s246.070312 100.746094 246.070312 225.015625zm0 0" fill="#b8866b"/><path d="m343.484375 406.523438c0 55.234374-62.398437 87.226562-111.332031 74.785156-25.558594-6.5-49.894532-25.902344-59.308594-50.863282-8.679688-22.988281-2.890625-46.621093 2.140625-69.753906 5.632813-25.902344 10.375-52.441406 10.816406-79.023437.097657-5.871094-1.363281-12.902344-2.03125-19.453125.007813-.007813.019531-.027344.027344-.039063.113281-.230469.210937-.46875.320313-.699219.359374-.800781.742187-1.589843 1.132812-2.371093 13.191406-26.640625 40.070312-44.03125 69.9375-44.230469h1.5625c29.867188.199219 56.746094 17.589844 69.9375 44.230469.3125.621093.621094 1.25.910156 1.890625.011719.019531.023438.050781.042969.082031-.332031 6.148437-1.5625 12.519531-1.519531 18.609375.089844 14.769531 1.75 29.542969 3.949218 44.132812 4.210938 27.851563 12.042969 54.8125 13.414063 82.703126zm0 0" fill="#f2d1a5"/><path d="m436.71875 68.386719c-82.601562-75.523438-210.644531-89.421875-308.972656-37.0625-48.222656 25.679687-88.503906 66.878906-110.144532 117.3125-10.367187 24.15625-16.3125 50.132812-17.484374 76.394531-1.019532 22.90625 4.539062 43.699219 20.046874 61.09375 38.566407 43.246094 114.164063 45.203125 155.300782 4.515625-1.277344 23.976563-5.832032 47.582031-10.25 67.929687l-.660156 3c-6.617188 30.253907-10.847657 60.921876 7.058593 88.304688 14.628907 22.371094 39.078125 38.089844 65.34375 42.679688 55.730469 9.734374 120.828125-30.597657 116.1875-91.792969-2.8125-37.105469-14.554687-72.855469-16.664062-110.109375 39.246093 38.8125 109.613281 38.777344 149.625 1.269531 17.707031-16.597656 26.464843-38.398437 25.867187-62.519531-.703125-28.464844-7.011718-56.6875-18.496094-82.746094-13.113281-29.753906-32.792968-56.355469-56.757812-78.269531-48.332031-44.191407 48.574219 44.421875 0 0zm-128.503906 387.347656c-27.183594 21.132813-66.851563 24.628906-96.199219 6.046875-13.699219-8.671875-25.503906-21.589844-30.625-37.183594-6.292969-19.179687-1.46875-39.679687 2.707031-58.757812l.660156-3.019532c7.019532-32.285156 13.675782-65.867187 9.273438-98.90625v-.007812l.179688-.363281c11.722656-23.675781 35.121093-38.5 60.976562-38.667969h1.492188c7.796874.054688 15.824218 1.378906 23.117187 4.210938.058594.03125.121094.050781.167969.058593 2.847656 1.0625 5.636718 2.320313 8.304687 3.773438 6.394531 3.195312 12.632813 8.015625 17.421875 13.34375.9375.984375 1.839844 2 2.710938 3.039062 1.050781 1.144531 2.027344 2.453125 2.921875 3.722657 1.464843 1.882812 2.804687 3.964843 3.972656 6.050781.148437.242187.300781.492187.429687.75.632813 1.039062 1.175782 2.132812 1.738282 3.210937v.011719c-2.027344 23.246094-.144532 45.710937 3.753906 68.734375 4.226562 24.949219 10.972656 49.609375 12.261719 74.980469-.078125 18.976562-9.042969 36.351562-25.265625 48.972656-20.367188 15.835937 16.222656-12.621094 0 0zm103.796875-155.859375c-29.367188 0-61.398438-13.910156-74.609375-41.53125-.148438-.292969-.289063-.589844-.421875-.890625l-.25-.546875c-13.386719-31.246094-46.375-51.816406-79.980469-52.035156h-1.628906c-34.441406.226562-65.859375 21.179687-80.085938 52.414062-17.363281 34.695313-59.53125 48.378906-96.023437 40.339844-32.28125-7.109375-59.726563-31.875-59.074219-66.5 1.238281-65.476562 36.113281-125.671875 88.472656-163.964844 56.308594-41.183594 129.554688-55.90625 197.75-42.40625 64.867188 12.84375 124.671875 51.835938 158.316406 109.367188 16.238282 27.765625 25.820313 59.242187 27.339844 91.394531.761719 16.132813-1.882812 30.722656-11.953125 43.78125-10.179687 13.203125-25.140625 22.214844-41.027343 26.824219-8.699219 2.519531-17.769532 3.753906-26.824219 3.753906zm0 0"/><path d="m79.875 170.234375c-1.597656 0-3.21875-.382813-4.722656-1.191406-4.867188-2.613281-6.695313-8.679688-4.078125-13.546875 16.796875-31.277344 42.664062-57.691406 74.804687-76.378906 32.898438-19.132813 70.96875-29.246094 110.089844-29.246094 5.523438 0 10.003906 4.476562 10.003906 10.003906 0 5.523438-4.480468 10.003906-10.003906 10.003906-35.59375 0-70.183594 9.171875-100.03125 26.53125-28.941406 16.828125-52.191406 40.535156-67.242188 68.554688-1.804687 3.359375-5.253906 5.269531-8.820312 5.269531zm0 0"/><path d="m64.0625 208.464844c-5.523438 0-10.007812-4.476563-10.007812-10 0-5.523438 4.472656-10.003906 9.996093-10.003906h.011719c5.523438 0 10.003906 4.476562 10.003906 10.003906 0 5.523437-4.480468 10-10.003906 10zm0 0"/></svg>