<svg  viewBox="0 -16 464 464" xmlns="http://www.w3.org/2000/svg"><path d="m160 56 19.375-9.6875c17.542969-8.769531 28.625-26.699219 28.625-46.3125h48c0 19.613281 11.082031 37.542969 28.625 46.3125l19.375 9.6875v24h-144zm0 0" fill="#406325"/><path d="m352 48c-13.199219.113281-26.125 3.761719-37.433594 10.566406-6.042968-1.6875-12.289062-2.550781-18.566406-2.566406-11.113281.066406-22.0625 2.6875-32 7.664062-20.109375-10.21875-43.890625-10.21875-64 0-9.9375-4.976562-20.886719-7.597656-32-7.664062-6.277344.015625-12.523438.878906-18.566406 2.566406-11.308594-6.804687-24.234375-10.453125-37.433594-10.566406-61.855469 0-112 82.398438-112 184s50.144531 184 112 184c6.277344-.015625 12.523438-.878906 18.566406-2.566406 11.308594 6.804687 24.234375 10.453125 37.433594 10.566406 11.113281-.066406 22.0625-2.6875 32-7.664062 20.109375 10.21875 43.890625 10.21875 64 0 9.9375 4.976562 20.886719 7.597656 32 7.664062 13.199219-.113281 26.125-3.761719 37.433594-10.566406 6.042968 1.6875 12.289062 2.550781 18.566406 2.566406 61.855469 0 112-82.398438 112-184s-50.144531-184-112-184zm0 0" fill="#f7931e"/><g fill="#f15a24"><path d="m232 432c-43.136719 0-81.832031-35.296875-103.511719-94.398438-1.519531-4.148437.609375-8.746093 4.757813-10.265624 4.152344-1.519532 8.746094.609374 10.265625 4.761718 18.984375 51.742188 52.886719 83.902344 88.488281 83.902344 35.28125 0 69.023438-31.726562 88.070312-82.800781 1.546876-4.140625 6.15625-6.242188 10.296876-4.695313 4.140624 1.546875 6.242187 6.15625 4.695312 10.296875-21.765625 58.359375-60.292969 93.199219-103.0625 93.199219zm0 0"/><path d="m320.871094 136c-3.105469 0-5.929688-1.796875-7.246094-4.609375-20.023438-42.832031-49.785156-67.390625-81.625-67.390625s-61.601562 24.558594-81.601562 67.390625c-1.179688 2.640625-3.691407 4.4375-6.570313 4.699219-2.878906.265625-5.675781-1.046875-7.316406-3.425782-1.640625-2.378906-1.871094-5.460937-.601563-8.054687 22.746094-48.6875 57.769532-76.609375 96.089844-76.609375s73.34375 27.921875 96.113281 76.609375c1.160157 2.476563.972657 5.375-.496093 7.683594-1.464844 2.304687-4.011719 3.707031-6.746094 3.707031zm0 0"/><path d="m168 432c-48.800781 0-92.273438-46.320312-110.847656-117.992188-1.105469-4.277343 1.46875-8.644531 5.746094-9.746093 4.28125-1.105469 8.644531 1.46875 9.75 5.746093 16.679687 64.390626 54.113281 105.992188 95.351562 105.992188 4.417969 0 8 3.582031 8 8s-3.582031 8-8 8zm0 0"/><path d="m56 248c-4.417969 0-8-3.582031-8-8 0-105.863281 53.832031-192 120-192 4.417969 0 8 3.582031 8 8s-3.582031 8-8 8c-57.34375 0-104 78.953125-104 176 0 4.417969-3.582031 8-8 8zm0 0"/><path d="m288 432c-4.417969 0-8-3.582031-8-8s3.582031-8 8-8c41.238281 0 78.671875-41.601562 95.351562-106.007812 1.105469-4.277344 5.46875-6.851563 9.75-5.75 4.277344 1.105468 6.851563 5.472656 5.746094 9.75-18.574218 71.6875-62.046875 118.007812-110.847656 118.007812zm0 0"/><path d="m400 248c-4.417969 0-8-3.582031-8-8 0-97.046875-46.65625-176-104-176-4.417969 0-8-3.582031-8-8s3.582031-8 8-8c66.167969 0 120 86.136719 120 192 0 4.417969-3.582031 8-8 8zm0 0"/></g></svg>