<?xml version="1.0" encoding="iso-8859-1"?>
<!-- Generator: Adobe Illustrator 19.0.0, SVG Export Plug-In . SVG Version: 6.00 Build 0)  -->
<svg version="1.1" id="Capa_1" xmlns="http://www.w3.org/2000/svg" xmlns:xlink="http://www.w3.org/1999/xlink" x="0px" y="0px"
	 viewBox="0 0 512.001 512.001" style="enable-background:new 0 0 512.001 512.001;" xml:space="preserve">
<path style="fill:#8034AD;" d="M422.098,459.82c-1.906,4.9-4.022,9.3-6.337,13.152c-0.259,0.439-0.529,0.868-0.808,1.297
	c-6.546,10.318-15.557,18.202-25.816,23.331c-18.711,9.35-41.562,9.52-61.101-1.437L236.6,440.152c-0.01,0-0.02-0.01-0.02-0.01
	l-34.368-21.056c-0.08-0.05-0.16-0.09-0.24-0.14c-0.01,0-0.01-0.01-0.01-0.01c-30.885-17.363-60.253-44.586-82.686-76.389
	c-4.61-6.536-8.931-13.252-12.903-20.128c-17.912-30.905-28.979-64.793-28.979-97.514l-0.459-52.659l-0.16-18.81l-0.778-95.059
	l38.14-0.669l5.608-0.1l254.822-4.451c0.319,0.709,0.748,1.527,1.058,2.245c22.682,51.392,39.527,114.768,49.555,177.116
	c0.868,5.389,1.686,10.767,2.455,16.136C439.901,334.704,438.924,416.641,422.098,459.82z"/>
<path style="fill:#A258CD;" d="M422.098,459.82c-1.906,4.9-4.022,9.3-6.337,13.152c-0.259,0.439-0.529,0.868-0.808,1.297
	c-15.936,4.331-33.509,2.634-48.997-6.047L274.52,412.21c-0.01,0-0.02-0.01-0.02-0.01l-34.368-21.056
	c-0.08-0.05-0.16-0.09-0.24-0.14c-0.01,0-0.01-0.01-0.01-0.01c-30.885-17.363-60.253-44.586-82.686-76.389
	c-4.61-6.536-8.931-13.252-12.903-20.128c-17.912-30.905-28.979-64.793-28.979-97.514l-0.459-52.659l-0.16-18.81l-0.559-67.787
	l5.608-0.1l254.822-4.451c0.319,0.709,0.748,1.527,1.058,2.245c22.682,51.392,39.527,114.768,49.555,177.116
	c0.868,5.389,1.686,10.767,2.455,16.136C439.901,334.704,438.924,416.641,422.098,459.82z"/>
<path style="fill:#FFA733;" d="M375.348,58.367c0,24.718-51.791,45.304-120.486,49.915c-9.44,0.649-19.2,0.978-29.188,0.978
	c-82.666,0-149.674-22.782-149.674-50.893c0-28.101,67.009-50.883,149.674-50.883c9.989,0,19.748,0.329,29.188,0.978
	C323.556,13.072,375.348,33.659,375.348,58.367z"/>
<path style="fill:#FFB655;" d="M375.348,58.367c0,24.718-51.791,45.304-120.486,49.915c-2.824,0.19-5.668,0.359-8.542,0.499
	c-72.916-3.413-129.078-24.678-129.078-50.414c0-7.085,4.261-13.831,11.955-19.958c20.237-16.126,64.254-27.971,117.083-30.446
	c2.884,0.14,5.748,0.299,8.582,0.499c48.997,3.293,89.391,14.709,108.531,29.947C371.087,44.536,375.348,51.282,375.348,58.367z"/>
<path d="M381.565,50.324C370.996,17.573,296.284,0,225.674,0C149.484,0,68.515,20.457,68.515,58.367l1.397,166.539
	c0,78.068,60.17,162.295,128.519,200.637c129.386,79.269,125.759,77.054,125.944,77.147c34.312,19.242,77.591,7.713,97.794-25.855
	C464.307,406.911,440.433,182.037,381.565,50.324z M122.241,29.468c56.94-19.344,149.916-19.354,206.864,0
	c24.269,8.253,38.758,19.06,38.758,28.899c0,9.849-14.489,20.646-38.758,28.899c-56.892,19.356-149.911,19.37-206.864,0
	c-24.269-8.253-38.758-19.05-38.758-28.899C83.483,48.528,97.972,37.72,122.241,29.468z M409.355,469.11
	c-16.156,26.813-50.184,35.844-77.536,20.597l-79.213-48.528c6.924-3.006,5.477-13.361-2.096-14.28
	c-9.849-1.207-19.309-2.644-27.921-4.111c-15.518-10.93-55.081-26.841-93.992-79.762c5.776-3.166,4.9-11.816-1.457-13.721
	c-3.562-1.068-6.905-2.136-9.959-3.143C96.954,293.581,84.88,257.786,84.88,224.836l-0.419-47.659
	c3.782,2.355,8.043,4.81,12.723,7.215c3.702,1.885,8.204,0.438,10.089-3.233c1.886-3.672,0.449-8.183-3.233-10.079
	c-8.023-4.131-14.719-8.422-19.728-11.955l-0.649-74.593c59.393,46.39,253.293,41.499,292.533-8.302
	c18.142,46.043,32.921,102.633,42.061,160.571c-10.268,6.007-25.796,13.681-46.472,20.078c-8.19,2.544-6.307,14.639,2.205,14.639
	c3.82,0,28.437-8.926,46.632-18.85C428.228,306.861,437.471,422.421,409.355,469.11z"/>
<path d="M173.173,194.809c0.03-4.131-3.293-7.514-7.424-7.554c-11.586-0.1-23.461-1.936-35.276-5.458
	c-3.962-1.178-8.133,1.068-9.31,5.029c-1.178,3.962,1.068,8.133,5.029,9.31c21.58,6.441,36.916,5.876,39.497,6.087
	C169.792,202.223,173.133,198.92,173.173,194.809z"/>
<path d="M279.449,284.38c21.639,0.378,44.878-1.453,66.949-5.738c4.051-0.788,6.706-4.72,5.918-8.781
	c-0.788-4.051-4.71-6.706-8.772-5.918c-21.302,4.138-43.636,5.837-63.885,5.468c-4.111-0.08-7.524,3.243-7.584,7.384
	C272.016,280.927,275.319,284.32,279.449,284.38z"/>
<path d="M347.715,422.938c-19.27,7.565-47.079,7.792-67.857,6.626c-4.101-0.22-7.654,2.924-7.883,7.055
	c-0.239,4.121,2.924,7.654,7.055,7.883c23.049,1.31,52.573,0.842,74.154-7.634c3.852-1.517,5.738-5.858,4.231-9.7
	C355.908,423.317,351.557,421.421,347.715,422.938z"/>
<path d="M369.6,124.567c-2.285-3.443-6.935-4.371-10.378-2.076c-2.924,1.956-6.257,3.782-9.889,5.429
	c-3.772,1.706-5.439,6.147-3.732,9.909c1.743,3.832,6.253,5.404,9.909,3.722c4.371-1.986,8.422-4.201,12.025-6.606
	C370.966,132.65,371.894,128.01,369.6,124.567z"/>
<path d="M293.032,154.165c0.589,0,14.779-0.04,32.192-3.373c4.061-0.778,6.726-4.7,5.947-8.762c-0.778-4.061-4.7-6.726-8.762-5.947
	c-10.993,2.105-23.251,3.113-29.388,3.113c-4.131,0-7.474,3.353-7.474,7.484S288.899,154.165,293.032,154.165z"/>
<path d="M185.088,340.611c-8.901-0.499-18.84-1.866-29.558-4.071c-4.061-0.828-8.013,1.776-8.841,5.828
	c-0.828,4.051,1.776,8.003,5.828,8.841c15.326,3.145,28.649,4.361,32.152,4.361c3.952,0,7.245-3.083,7.474-7.075
	C192.373,344.374,189.21,340.841,185.088,340.611z"/>
<g>
</g>
<g>
</g>
<g>
</g>
<g>
</g>
<g>
</g>
<g>
</g>
<g>
</g>
<g>
</g>
<g>
</g>
<g>
</g>
<g>
</g>
<g>
</g>
<g>
</g>
<g>
</g>
<g>
</g>
</svg>
